<svg width="48" height="48" viewBox="0 0 48 48" fill="none" xmlns="http://www.w3.org/2000/svg">
<g clip-path="url(#clip0_103_9)">
<path d="M24.2476 11.3623C17.434 11.3623 11.9146 16.8437 11.9146 23.6192C11.9146 26.2838 12.79 28.7961 14.2746 30.8135L12.7139 35.3813L17.472 33.8587C19.4134 35.153 21.7734 35.8762 24.2857 35.8762C31.0993 35.8762 36.6568 30.3948 36.6568 23.6192C36.6187 16.8437 31.0612 11.3623 24.2476 11.3623ZM31.48 28.6819C31.1754 29.5193 29.6909 30.3187 29.0438 30.3948C28.3967 30.471 28.3967 30.9277 24.7044 29.5193C21.0502 28.0729 18.7282 24.3805 18.5379 24.1141C18.3475 23.8857 17.0533 22.1728 17.0533 20.4218C17.0533 18.6708 17.9669 17.7953 18.3095 17.4527C18.6521 17.1101 19.0327 16.9959 19.2611 16.9959C19.4895 16.9959 19.7559 17.034 19.9463 17.034C20.1747 17.034 20.4411 16.9198 20.7456 17.643C21.0502 18.3663 21.7734 20.1173 21.8495 20.3076C21.9256 20.4979 22.0018 20.6882 21.8876 20.9166C21.7734 21.145 21.6973 21.2973 21.545 21.5257C21.3547 21.716 21.1643 21.9825 21.0121 22.1347C20.8218 22.325 20.6314 22.5154 20.8598 22.8579C21.0882 23.2005 21.8115 24.3806 22.8773 25.3322C24.2476 26.5503 25.4276 26.9309 25.7702 27.1212C26.1128 27.3116 26.3412 27.2735 26.5315 27.0451C26.7599 26.8167 27.4451 26.0173 27.6735 25.6367C27.9019 25.2941 28.1683 25.3322 28.4728 25.4464C28.8154 25.5606 30.5664 26.4361 30.9471 26.6264C31.2896 26.8167 31.5561 26.8928 31.6322 27.0451C31.7464 27.1212 31.7464 27.8445 31.48 28.6819Z" fill="black"/>
<path d="M35.9334 0.019043H12.0285C5.40523 0.019043 0 5.42428 0 12.0476V35.9905C0 42.5757 5.40523 47.981 12.0285 47.981H35.9715C42.5948 47.981 48 42.5757 48 35.9524V12.0476C47.9619 5.42428 42.5567 0.019043 35.9334 0.019043ZM24.2474 38.1983C21.659 38.1983 19.2609 37.5511 17.1293 36.3711L8.98335 38.9596L11.6479 31.1562C10.3156 28.9485 9.55432 26.36 9.55432 23.6194C9.55432 15.5496 16.1396 9.04045 24.2474 9.04045C32.3553 9.04045 38.9405 15.5496 38.9405 23.6194C38.9405 31.6891 32.3553 38.1983 24.2474 38.1983Z" fill="black"/>
</g>
<defs>
<clipPath id="clip0_103_9">
<path d="M0 24C0 10.7452 10.7452 0 24 0C37.2548 0 48 10.7452 48 24C48 37.2548 37.2548 48 24 48C10.7452 48 0 37.2548 0 24Z" fill="white"/>
</clipPath>
</defs>
</svg>
